<svg width="85" height="85" viewBox="0 0 85 85" opacity=".1" fill="none" xmlns="http://www.w3.org/2000/svg">
<g clip-path="url(#clip0)">
<path d="M-0.243105 -1.00105C-0.607656 -0.885548 -0.943331 -0.513778 -1.02274 -0.138399C-1.17794 0.594313 -0.459669 1.31259 0.273042 1.15738C0.691734 1.07076 1.07072 0.691767 1.15735 0.273075C1.32338 -0.506559 0.518482 -1.23927 -0.243105 -1.00105Z" fill="black"/>
<path d="M9.19909 -1.00105C8.83454 -0.885548 8.49887 -0.513778 8.41946 -0.138399C8.26426 0.594313 8.98253 1.31259 9.71524 1.15738C10.1339 1.07076 10.5129 0.691767 10.5995 0.273075C10.7656 -0.506559 9.96068 -1.23927 9.19909 -1.00105Z" fill="black"/>
<path d="M18.6414 -1.00105C18.2768 -0.885548 17.9411 -0.513778 17.8617 -0.138399C17.7065 0.594313 18.4248 1.31259 19.1575 1.15738C19.5762 1.07076 19.9552 0.691767 20.0418 0.273075C20.2078 -0.506559 19.4029 -1.23927 18.6414 -1.00105Z" fill="black"/>
<path d="M28.0836 -1.00105C27.719 -0.885548 27.3833 -0.513778 27.3039 -0.138399C27.1487 0.594313 27.867 1.31259 28.5997 1.15738C29.0184 1.07076 29.3974 0.691767 29.484 0.273075C29.65 -0.506559 28.8451 -1.23927 28.0836 -1.00105Z" fill="black"/>
<path d="M37.5249 -1.00105C37.1603 -0.885548 36.8246 -0.513778 36.7452 -0.138399C36.6261 0.42467 37.0412 1.03466 37.6295 1.15738C38.3623 1.31259 39.0805 0.594313 38.9253 -0.138399C38.7918 -0.770046 38.1168 -1.18513 37.5249 -1.00105Z" fill="black"/>
<path d="M46.9657 -1.00105C46.6011 -0.885548 46.2654 -0.513778 46.186 -0.138399C46.0669 0.42467 46.482 1.03466 47.0703 1.15738C47.803 1.31259 48.5213 0.594313 48.3661 -0.138399C48.2326 -0.770046 47.5576 -1.18513 46.9657 -1.00105Z" fill="black"/>
<path d="M56.4063 -1.00105C56.0418 -0.885548 55.7061 -0.513778 55.6267 -0.138399C55.5076 0.42467 55.9227 1.03466 56.511 1.15738C57.2437 1.31259 57.962 0.594313 57.8068 -0.138399C57.6732 -0.770046 56.9983 -1.18513 56.4063 -1.00105Z" fill="black"/>
<path d="M65.847 -1.00105C65.4824 -0.885548 65.1467 -0.513778 65.0673 -0.138399C64.9482 0.42467 65.3633 1.03466 65.9516 1.15738C66.6844 1.31259 67.4026 0.594313 67.2474 -0.138399C67.1139 -0.770046 66.4389 -1.18513 65.847 -1.00105Z" fill="black"/>
<path d="M75.2886 -1.00105C74.9241 -0.885548 74.5884 -0.513778 74.509 -0.138399C74.3538 0.594313 75.0721 1.31259 75.8048 1.15738C76.2235 1.07076 76.6025 0.691767 76.6891 0.273075C76.8551 -0.506559 76.0502 -1.23927 75.2886 -1.00105Z" fill="black"/>
<path d="M84.7308 -1.00105C84.3662 -0.885548 84.0305 -0.513778 83.9511 -0.138399C83.7959 0.594313 84.5142 1.31259 85.2469 1.15738C85.6656 1.07076 86.0446 0.691767 86.1312 0.273075C86.2972 -0.506559 85.4923 -1.23927 84.7308 -1.00105Z" fill="black"/>
<path d="M-0.243105 8.44323C-0.607656 8.55873 -0.943331 8.9305 -1.02274 9.30588C-1.17794 10.0386 -0.459669 10.7569 0.273042 10.6017C0.691734 10.515 1.07072 10.136 1.15735 9.71735C1.32338 8.93772 0.518482 8.205 -0.243105 8.44323Z" fill="black"/>
<path d="M9.19909 8.44323C8.83454 8.55873 8.49887 8.9305 8.41946 9.30588C8.26426 10.0386 8.98253 10.7569 9.71524 10.6017C10.1339 10.515 10.5129 10.136 10.5995 9.71735C10.7656 8.93772 9.96068 8.205 9.19909 8.44323Z" fill="black"/>
<path d="M18.6414 8.44323C18.2768 8.55873 17.9411 8.9305 17.8617 9.30588C17.7065 10.0386 18.4248 10.7569 19.1575 10.6017C19.5762 10.515 19.9552 10.136 20.0418 9.71735C20.2078 8.93772 19.4029 8.205 18.6414 8.44323Z" fill="black"/>
<path d="M28.0836 8.44323C27.719 8.55873 27.3833 8.9305 27.3039 9.30588C27.1487 10.0386 27.867 10.7569 28.5997 10.6017C29.0184 10.515 29.3974 10.136 29.484 9.71735C29.65 8.93772 28.8451 8.205 28.0836 8.44323Z" fill="black"/>
<path d="M37.5249 8.44323C37.1603 8.55873 36.8246 8.9305 36.7452 9.30588C36.6261 9.86895 37.0412 10.4789 37.6295 10.6017C38.3623 10.7569 39.0805 10.0386 38.9253 9.30588C38.7918 8.67423 38.1168 8.25915 37.5249 8.44323Z" fill="black"/>
<path d="M46.9665 8.44323C46.602 8.55873 46.2663 8.9305 46.1869 9.30588C46.0317 10.0386 46.75 10.7569 47.4827 10.6017C48.071 10.4789 48.4861 9.86895 48.367 9.30588C48.2334 8.67423 47.5585 8.25915 46.9665 8.44323Z" fill="black"/>
<path d="M56.4072 8.44323C56.0427 8.55873 55.707 8.9305 55.6276 9.30588C55.4724 10.0386 56.1907 10.7569 56.9234 10.6017C57.5117 10.4789 57.9268 9.86895 57.8077 9.30588C57.6741 8.67423 56.9992 8.25915 56.4072 8.44323Z" fill="black"/>
<path d="M65.8478 8.44323C65.4833 8.55873 65.1476 8.9305 65.0682 9.30588C64.913 10.0386 65.6313 10.7569 66.364 10.6017C66.9523 10.4789 67.3674 9.86895 67.2483 9.30588C67.1148 8.67423 66.4398 8.25915 65.8478 8.44323Z" fill="black"/>
<path d="M75.2886 8.44323C74.9241 8.55873 74.5884 8.9305 74.509 9.30588C74.3538 10.0386 75.0721 10.7569 75.8048 10.6017C76.2235 10.515 76.6025 10.136 76.6891 9.71735C76.8551 8.93772 76.0502 8.205 75.2886 8.44323Z" fill="black"/>
<path d="M84.7308 8.44323C84.3662 8.55873 84.0305 8.9305 83.9511 9.30588C83.7959 10.0386 84.5142 10.7569 85.2469 10.6017C85.6656 10.515 86.0446 10.136 86.1312 9.71735C86.2972 8.93772 85.4923 8.205 84.7308 8.44323Z" fill="black"/>
<path d="M-0.243105 17.8875C-0.607656 18.003 -0.943331 18.3748 -1.02274 18.7502C-1.17794 19.4829 -0.459669 20.2011 0.273042 20.0459C0.691734 19.9593 1.07072 19.5803 1.15735 19.1616C1.32338 18.382 0.518482 17.6493 -0.243105 17.8875Z" fill="black"/>
<path d="M9.19909 17.8875C8.83454 18.003 8.49887 18.3748 8.41946 18.7502C8.26426 19.4829 8.98253 20.2011 9.71524 20.0459C10.1339 19.9593 10.5129 19.5803 10.5995 19.1616C10.7656 18.382 9.96068 17.6493 9.19909 17.8875Z" fill="black"/>
<path d="M18.6414 17.8875C18.2768 18.003 17.9411 18.3748 17.8617 18.7502C17.7065 19.4829 18.4248 20.2011 19.1575 20.0459C19.5762 19.9593 19.9552 19.5803 20.0418 19.1616C20.2078 18.382 19.4029 17.6493 18.6414 17.8875Z" fill="black"/>
<path d="M28.0836 17.8875C27.719 18.003 27.3833 18.3748 27.3039 18.7502C27.1487 19.4829 27.867 20.2011 28.5997 20.0459C29.0184 19.9593 29.3974 19.5803 29.484 19.1616C29.65 18.382 28.8451 17.6493 28.0836 17.8875Z" fill="black"/>
<path d="M37.5258 17.8875C37.1612 18.003 36.8255 18.3748 36.7461 18.7502C36.5909 19.4829 37.3092 20.2011 38.0419 20.0459C38.4606 19.9593 38.8396 19.5803 38.9262 19.1616C39.0922 18.382 38.2873 17.6493 37.5258 17.8875Z" fill="black"/>
<path d="M46.968 17.8875C46.6035 18.003 46.2678 18.3748 46.1884 18.7502C46.0332 19.4829 46.7515 20.2011 47.4842 20.0459C47.9029 19.9593 48.2818 19.5803 48.3685 19.1616C48.5345 18.382 47.7296 17.6493 46.968 17.8875Z" fill="black"/>
<path d="M56.4102 17.8875C56.0457 18.003 55.71 18.3748 55.6306 18.7502C55.4754 19.4829 56.1937 20.2011 56.9264 20.0459C57.3451 19.9593 57.724 19.5803 57.8107 19.1616C57.9767 18.382 57.1718 17.6493 56.4102 17.8875Z" fill="black"/>
<path d="M65.8525 17.8875C65.4879 18.003 65.1522 18.3748 65.0728 18.7502C64.9176 19.4829 65.6359 20.2011 66.3686 20.0459C66.7873 19.9593 67.1663 19.5803 67.2529 19.1616C67.419 18.382 66.6141 17.6493 65.8525 17.8875Z" fill="black"/>
<path d="M75.2947 17.8875C74.9301 18.003 74.5945 18.3748 74.515 18.7502C74.3598 19.4829 75.0781 20.2011 75.8108 20.0459C76.2295 19.9593 76.6085 19.5803 76.6951 19.1616C76.8612 18.382 76.0563 17.6493 75.2947 17.8875Z" fill="black"/>
<path d="M84.7369 17.8875C84.3724 18.003 84.0367 18.3748 83.9573 18.7502C83.8021 19.4829 84.5204 20.2011 85.2531 20.0459C85.6718 19.9593 86.0508 19.5803 86.1374 19.1616C86.3034 18.382 85.4985 17.6493 84.7369 17.8875Z" fill="black"/>
<path d="M-0.243105 27.3318C-0.607656 27.4473 -0.943331 27.8191 -1.02274 28.1945C-1.17794 28.9272 -0.459669 29.6455 0.273042 29.4903C0.691734 29.4036 1.07072 29.0247 1.15735 28.606C1.32338 27.8263 0.518482 27.0936 -0.243105 27.3318Z" fill="black"/>
<path d="M9.19909 27.3318C8.83454 27.4473 8.49887 27.8191 8.41946 28.1945C8.26426 28.9272 8.98253 29.6455 9.71524 29.4903C10.1339 29.4036 10.5129 29.0247 10.5995 28.606C10.7656 27.8263 9.96068 27.0936 9.19909 27.3318Z" fill="black"/>
<path d="M18.6414 27.3318C18.2768 27.4473 17.9411 27.8191 17.8617 28.1945C17.7065 28.9272 18.4248 29.6455 19.1575 29.4903C19.5762 29.4036 19.9552 29.0247 20.0418 28.606C20.2078 27.8263 19.4029 27.0936 18.6414 27.3318Z" fill="black"/>
<path d="M28.0836 27.3318C27.719 27.4473 27.3833 27.8191 27.3039 28.1945C27.1487 28.9272 27.867 29.6455 28.5997 29.4903C29.0184 29.4036 29.3974 29.0247 29.484 28.606C29.65 27.8263 28.8451 27.0936 28.0836 27.3318Z" fill="black"/>
<path d="M37.5258 27.3318C37.1612 27.4473 36.8255 27.8191 36.7461 28.1945C36.5909 28.9272 37.3092 29.6455 38.0419 29.4903C38.4606 29.4036 38.8396 29.0247 38.9262 28.606C39.0922 27.8263 38.2873 27.0936 37.5258 27.3318Z" fill="black"/>
<path d="M46.968 27.3318C46.6035 27.4473 46.2678 27.8191 46.1884 28.1945C46.0332 28.9272 46.7515 29.6455 47.4842 29.4903C47.9029 29.4036 48.2818 29.0247 48.3685 28.606C48.5345 27.8263 47.7296 27.0936 46.968 27.3318Z" fill="black"/>
<path d="M56.4102 27.3318C56.0457 27.4473 55.71 27.8191 55.6306 28.1945C55.4754 28.9272 56.1937 29.6455 56.9264 29.4903C57.3451 29.4036 57.724 29.0247 57.8107 28.606C57.9767 27.8263 57.1718 27.0936 56.4102 27.3318Z" fill="black"/>
<path d="M65.8525 27.3318C65.4879 27.4473 65.1522 27.8191 65.0728 28.1945C64.9176 28.9272 65.6359 29.6455 66.3686 29.4903C66.7873 29.4036 67.1663 29.0247 67.2529 28.606C67.419 27.8263 66.6141 27.0936 65.8525 27.3318Z" fill="black"/>
<path d="M75.2947 27.3318C74.9301 27.4473 74.5945 27.8191 74.515 28.1945C74.3598 28.9272 75.0781 29.6455 75.8108 29.4903C76.2295 29.4036 76.6085 29.0247 76.6951 28.606C76.8612 27.8263 76.0563 27.0936 75.2947 27.3318Z" fill="black"/>
<path d="M84.7369 27.3318C84.3724 27.4473 84.0367 27.8191 83.9573 28.1945C83.8021 28.9272 84.5204 29.6455 85.2531 29.4903C85.6718 29.4036 86.0508 29.0247 86.1374 28.606C86.3034 27.8263 85.4985 27.0936 84.7369 27.3318Z" fill="black"/>
<path d="M-0.243105 36.7761C-0.607656 36.8916 -0.943331 37.2634 -1.02274 37.6388C-1.17794 38.3715 -0.459669 39.0897 0.273042 38.9345C0.691734 38.8479 1.07072 38.4689 1.15735 38.0502C1.32338 37.2706 0.518482 36.5379 -0.243105 36.7761Z" fill="black"/>
<path d="M9.19909 36.7761C8.83454 36.8916 8.49887 37.2634 8.41946 37.6388C8.26426 38.3715 8.98253 39.0897 9.71524 38.9345C10.1339 38.8479 10.5129 38.4689 10.5995 38.0502C10.7656 37.2706 9.96068 36.5379 9.19909 36.7761Z" fill="black"/>
<path d="M18.6414 36.7761C18.2768 36.8916 17.9411 37.2634 17.8617 37.6388C17.7065 38.3715 18.4248 39.0897 19.1575 38.9345C19.5762 38.8479 19.9552 38.4689 20.0418 38.0502C20.2078 37.2706 19.4029 36.5379 18.6414 36.7761Z" fill="black"/>
<path d="M28.0836 36.7761C27.719 36.8916 27.3833 37.2634 27.3039 37.6388C27.1487 38.3715 27.867 39.0897 28.5997 38.9345C29.0184 38.8479 29.3974 38.4689 29.484 38.0502C29.65 37.2706 28.8451 36.5379 28.0836 36.7761Z" fill="black"/>
<path d="M37.5258 36.7761C37.1612 36.8916 36.8255 37.2634 36.7461 37.6388C36.5909 38.3715 37.3092 39.0897 38.0419 38.9345C38.4606 38.8479 38.8396 38.4689 38.9262 38.0502C39.0922 37.2706 38.2873 36.5379 37.5258 36.7761Z" fill="black"/>
<path d="M46.968 36.7761C46.6035 36.8916 46.2678 37.2634 46.1884 37.6388C46.0332 38.3715 46.7515 39.0897 47.4842 38.9345C47.9029 38.8479 48.2818 38.4689 48.3685 38.0502C48.5345 37.2706 47.7296 36.5379 46.968 36.7761Z" fill="black"/>
<path d="M56.4102 36.7761C56.0457 36.8916 55.71 37.2634 55.6306 37.6388C55.4754 38.3715 56.1937 39.0897 56.9264 38.9345C57.3451 38.8479 57.724 38.4689 57.8107 38.0502C57.9767 37.2706 57.1718 36.5379 56.4102 36.7761Z" fill="black"/>
<path d="M65.8525 36.7761C65.4879 36.8916 65.1522 37.2634 65.0728 37.6388C64.9176 38.3715 65.6359 39.0897 66.3686 38.9345C66.7873 38.8479 67.1663 38.4689 67.2529 38.0502C67.419 37.2706 66.6141 36.5379 65.8525 36.7761Z" fill="black"/>
<path d="M75.2947 36.7761C74.9301 36.8916 74.5945 37.2634 74.515 37.6388C74.3598 38.3715 75.0781 39.0897 75.8108 38.9345C76.2295 38.8479 76.6085 38.4689 76.6951 38.0502C76.8612 37.2706 76.0563 36.5379 75.2947 36.7761Z" fill="black"/>
<path d="M84.7369 36.7761C84.3724 36.8916 84.0367 37.2634 83.9573 37.6388C83.8021 38.3715 84.5204 39.0897 85.2531 38.9345C85.6718 38.8479 86.0508 38.4689 86.1374 38.0502C86.3034 37.2706 85.4985 36.5379 84.7369 36.7761Z" fill="black"/>
<path d="M-0.243105 46.2204C-0.607656 46.3359 -0.943331 46.7077 -1.02274 47.0831C-1.17794 47.8158 -0.459669 48.5341 0.273042 48.3788C0.691734 48.2922 1.07072 47.9132 1.15735 47.4945C1.32338 46.7149 0.518482 45.9822 -0.243105 46.2204Z" fill="black"/>
<path d="M9.19909 46.2204C8.83454 46.3359 8.49887 46.7077 8.41946 47.0831C8.26426 47.8158 8.98253 48.5341 9.71524 48.3788C10.1339 48.2922 10.5129 47.9132 10.5995 47.4945C10.7656 46.7149 9.96068 45.9822 9.19909 46.2204Z" fill="black"/>
<path d="M18.6414 46.2204C18.2768 46.3359 17.9411 46.7077 17.8617 47.0831C17.7065 47.8158 18.4248 48.5341 19.1575 48.3788C19.5762 48.2922 19.9552 47.9132 20.0418 47.4945C20.2078 46.7149 19.4029 45.9822 18.6414 46.2204Z" fill="black"/>
<path d="M28.0836 46.2204C27.719 46.3359 27.3833 46.7077 27.3039 47.0831C27.1487 47.8158 27.867 48.5341 28.5997 48.3788C29.0184 48.2922 29.3974 47.9132 29.484 47.4945C29.65 46.7149 28.8451 45.9822 28.0836 46.2204Z" fill="black"/>
<path d="M37.5258 46.2204C37.1612 46.3359 36.8255 46.7077 36.7461 47.0831C36.5909 47.8158 37.3092 48.5341 38.0419 48.3788C38.4606 48.2922 38.8396 47.9132 38.9262 47.4945C39.0922 46.7149 38.2873 45.9822 37.5258 46.2204Z" fill="black"/>
<path d="M46.968 46.2204C46.6035 46.3359 46.2678 46.7077 46.1884 47.0831C46.0332 47.8158 46.7515 48.5341 47.4842 48.3788C47.9029 48.2922 48.2818 47.9132 48.3685 47.4945C48.5345 46.7149 47.7296 45.9822 46.968 46.2204Z" fill="black"/>
<path d="M56.4102 46.2204C56.0457 46.3359 55.71 46.7077 55.6306 47.0831C55.4754 47.8158 56.1937 48.5341 56.9264 48.3788C57.3451 48.2922 57.724 47.9132 57.8107 47.4945C57.9767 46.7149 57.1718 45.9822 56.4102 46.2204Z" fill="black"/>
<path d="M65.8525 46.2204C65.4879 46.3359 65.1522 46.7077 65.0728 47.0831C64.9176 47.8158 65.6359 48.5341 66.3686 48.3788C66.7873 48.2922 67.1663 47.9132 67.2529 47.4945C67.419 46.7149 66.6141 45.9822 65.8525 46.2204Z" fill="black"/>
<path d="M75.2947 46.2204C74.9301 46.3359 74.5945 46.7077 74.515 47.0831C74.3598 47.8158 75.0781 48.5341 75.8108 48.3788C76.2295 48.2922 76.6085 47.9132 76.6951 47.4945C76.8612 46.7149 76.0563 45.9822 75.2947 46.2204Z" fill="black"/>
<path d="M84.7369 46.2204C84.3724 46.3359 84.0367 46.7077 83.9573 47.0831C83.8021 47.8158 84.5204 48.5341 85.2531 48.3788C85.6718 48.2922 86.0508 47.9132 86.1374 47.4945C86.3034 46.7149 85.4985 45.9822 84.7369 46.2204Z" fill="black"/>
<path d="M-0.243105 55.6647C-0.607656 55.7802 -0.943331 56.152 -1.02274 56.5274C-1.17794 57.2601 -0.459669 57.9784 0.273042 57.8232C0.691734 57.7365 1.07072 57.3575 1.15735 56.9388C1.32338 56.1592 0.518482 55.4265 -0.243105 55.6647Z" fill="black"/>
<path d="M9.19909 55.6647C8.83454 55.7802 8.49887 56.152 8.41946 56.5274C8.26426 57.2601 8.98253 57.9784 9.71524 57.8232C10.1339 57.7365 10.5129 57.3575 10.5995 56.9388C10.7656 56.1592 9.96068 55.4265 9.19909 55.6647Z" fill="black"/>
<path d="M18.6414 55.6647C18.2768 55.7802 17.9411 56.152 17.8617 56.5274C17.7065 57.2601 18.4248 57.9784 19.1575 57.8232C19.5762 57.7365 19.9552 57.3575 20.0418 56.9388C20.2078 56.1592 19.4029 55.4265 18.6414 55.6647Z" fill="black"/>
<path d="M28.0836 55.6647C27.719 55.7802 27.3833 56.152 27.3039 56.5274C27.1487 57.2601 27.867 57.9784 28.5997 57.8232C29.0184 57.7365 29.3974 57.3575 29.484 56.9388C29.65 56.1592 28.8451 55.4265 28.0836 55.6647Z" fill="black"/>
<path d="M37.5258 55.6647C37.1612 55.7802 36.8255 56.152 36.7461 56.5274C36.5909 57.2601 37.3092 57.9784 38.0419 57.8232C38.4606 57.7365 38.8396 57.3575 38.9262 56.9388C39.0922 56.1592 38.2873 55.4265 37.5258 55.6647Z" fill="black"/>
<path d="M46.968 55.6647C46.6035 55.7802 46.2678 56.152 46.1884 56.5274C46.0332 57.2601 46.7515 57.9784 47.4842 57.8232C47.9029 57.7365 48.2818 57.3575 48.3685 56.9388C48.5345 56.1592 47.7296 55.4265 46.968 55.6647Z" fill="black"/>
<path d="M56.4102 55.6647C56.0457 55.7802 55.71 56.152 55.6306 56.5274C55.4754 57.2601 56.1937 57.9784 56.9264 57.8232C57.3451 57.7365 57.724 57.3575 57.8107 56.9388C57.9767 56.1592 57.1718 55.4265 56.4102 55.6647Z" fill="black"/>
<path d="M65.8525 55.6647C65.4879 55.7802 65.1522 56.152 65.0728 56.5274C64.9176 57.2601 65.6359 57.9784 66.3686 57.8232C66.7873 57.7365 67.1663 57.3575 67.2529 56.9388C67.419 56.1592 66.6141 55.4265 65.8525 55.6647Z" fill="black"/>
<path d="M75.2947 55.6647C74.9301 55.7802 74.5945 56.152 74.515 56.5274C74.3598 57.2601 75.0781 57.9784 75.8108 57.8232C76.2295 57.7365 76.6085 57.3575 76.6951 56.9388C76.8612 56.1592 76.0563 55.4265 75.2947 55.6647Z" fill="black"/>
<path d="M84.7369 55.6647C84.3724 55.7802 84.0367 56.152 83.9573 56.5274C83.8021 57.2601 84.5204 57.9784 85.2531 57.8232C85.6718 57.7365 86.0508 57.3575 86.1374 56.9388C86.3034 56.1592 85.4985 55.4265 84.7369 55.6647Z" fill="black"/>
<path d="M-0.243105 65.109C-0.607656 65.2245 -0.943331 65.5963 -1.02274 65.9717C-1.17794 66.7044 -0.459669 67.4227 0.273042 67.2675C0.691734 67.1808 1.07072 66.8018 1.15735 66.3832C1.32338 65.6035 0.518482 64.8708 -0.243105 65.109Z" fill="black"/>
<path d="M9.19909 65.109C8.83454 65.2245 8.49887 65.5963 8.41946 65.9717C8.26426 66.7044 8.98253 67.4227 9.71524 67.2675C10.1339 67.1808 10.5129 66.8018 10.5995 66.3832C10.7656 65.6035 9.96068 64.8708 9.19909 65.109Z" fill="black"/>
<path d="M18.6414 65.109C18.2768 65.2245 17.9411 65.5963 17.8617 65.9717C17.7065 66.7044 18.4248 67.4227 19.1575 67.2675C19.5762 67.1808 19.9552 66.8018 20.0418 66.3832C20.2078 65.6035 19.4029 64.8708 18.6414 65.109Z" fill="black"/>
<path d="M28.0836 65.109C27.719 65.2245 27.3833 65.5963 27.3039 65.9717C27.1487 66.7044 27.867 67.4227 28.5997 67.2675C29.0184 67.1808 29.3974 66.8018 29.484 66.3832C29.65 65.6035 28.8451 64.8708 28.0836 65.109Z" fill="black"/>
<path d="M37.5258 65.109C37.1612 65.2245 36.8255 65.5963 36.7461 65.9717C36.5909 66.7044 37.3092 67.4227 38.0419 67.2675C38.4606 67.1808 38.8396 66.8018 38.9262 66.3832C39.0922 65.6035 38.2873 64.8708 37.5258 65.109Z" fill="black"/>
<path d="M46.968 65.109C46.6035 65.2245 46.2678 65.5963 46.1884 65.9717C46.0332 66.7044 46.7515 67.4227 47.4842 67.2675C47.9029 67.1808 48.2818 66.8018 48.3685 66.3832C48.5345 65.6035 47.7296 64.8708 46.968 65.109Z" fill="black"/>
<path d="M56.4102 65.109C56.0457 65.2245 55.71 65.5963 55.6306 65.9717C55.4754 66.7044 56.1937 67.4227 56.9264 67.2675C57.3451 67.1808 57.724 66.8018 57.8107 66.3832C57.9767 65.6035 57.1718 64.8708 56.4102 65.109Z" fill="black"/>
<path d="M65.8525 65.109C65.4879 65.2245 65.1522 65.5963 65.0728 65.9717C64.9176 66.7044 65.6359 67.4227 66.3686 67.2675C66.7873 67.1808 67.1663 66.8018 67.2529 66.3832C67.419 65.6035 66.6141 64.8708 65.8525 65.109Z" fill="black"/>
<path d="M75.2947 65.109C74.9301 65.2245 74.5945 65.5963 74.515 65.9717C74.3598 66.7044 75.0781 67.4227 75.8108 67.2675C76.2295 67.1808 76.6085 66.8018 76.6951 66.3832C76.8612 65.6035 76.0563 64.8708 75.2947 65.109Z" fill="black"/>
<path d="M84.7369 65.109C84.3724 65.2245 84.0367 65.5963 83.9573 65.9717C83.8021 66.7044 84.5204 67.4227 85.2531 67.2675C85.6718 67.1808 86.0508 66.8018 86.1374 66.3832C86.3034 65.6035 85.4985 64.8708 84.7369 65.109Z" fill="black"/>
<path d="M-0.243105 74.5533C-0.607656 74.6688 -0.943331 75.0406 -1.02274 75.416C-1.17794 76.1487 -0.459669 76.867 0.273042 76.7118C0.691734 76.6251 1.07072 76.2461 1.15735 75.8275C1.32338 75.0478 0.518482 74.3151 -0.243105 74.5533Z" fill="black"/>
<path d="M9.19909 74.5533C8.83454 74.6688 8.49887 75.0406 8.41946 75.416C8.26426 76.1487 8.98253 76.867 9.71524 76.7118C10.1339 76.6251 10.5129 76.2461 10.5995 75.8275C10.7656 75.0478 9.96068 74.3151 9.19909 74.5533Z" fill="black"/>
<path d="M18.6414 74.5533C18.2768 74.6688 17.9411 75.0406 17.8617 75.416C17.7065 76.1487 18.4248 76.867 19.1575 76.7118C19.5762 76.6251 19.9552 76.2461 20.0418 75.8275C20.2078 75.0478 19.4029 74.3151 18.6414 74.5533Z" fill="black"/>
<path d="M28.0836 74.5533C27.719 74.6688 27.3833 75.0406 27.3039 75.416C27.1487 76.1487 27.867 76.867 28.5997 76.7118C29.0184 76.6251 29.3974 76.2461 29.484 75.8275C29.65 75.0478 28.8451 74.3151 28.0836 74.5533Z" fill="black"/>
<path d="M37.5258 74.5533C37.1612 74.6688 36.8255 75.0406 36.7461 75.416C36.5909 76.1487 37.3092 76.867 38.0419 76.7118C38.4606 76.6251 38.8396 76.2461 38.9262 75.8275C39.0922 75.0478 38.2873 74.3151 37.5258 74.5533Z" fill="black"/>
<path d="M46.968 74.5533C46.6035 74.6688 46.2678 75.0406 46.1884 75.416C46.0332 76.1487 46.7515 76.867 47.4842 76.7118C47.9029 76.6251 48.2818 76.2461 48.3685 75.8275C48.5345 75.0478 47.7296 74.3151 46.968 74.5533Z" fill="black"/>
<path d="M56.4102 74.5533C56.0457 74.6688 55.71 75.0406 55.6306 75.416C55.4754 76.1487 56.1937 76.867 56.9264 76.7118C57.3451 76.6251 57.724 76.2461 57.8107 75.8275C57.9767 75.0478 57.1718 74.3151 56.4102 74.5533Z" fill="black"/>
<path d="M65.8525 74.5533C65.4879 74.6688 65.1522 75.0406 65.0728 75.416C64.9176 76.1487 65.6359 76.867 66.3686 76.7118C66.7873 76.6251 67.1663 76.2461 67.2529 75.8275C67.419 75.0478 66.6141 74.3151 65.8525 74.5533Z" fill="black"/>
<path d="M75.2947 74.5533C74.9301 74.6688 74.5945 75.0406 74.515 75.416C74.3598 76.1487 75.0781 76.867 75.8108 76.7118C76.2295 76.6251 76.6085 76.2461 76.6951 75.8275C76.8612 75.0478 76.0563 74.3151 75.2947 74.5533Z" fill="black"/>
<path d="M84.7369 74.5533C84.3724 74.6688 84.0367 75.0406 83.9573 75.416C83.8021 76.1487 84.5204 76.867 85.2531 76.7118C85.6718 76.6251 86.0508 76.2461 86.1374 75.8275C86.3034 75.0478 85.4985 74.3151 84.7369 74.5533Z" fill="black"/>
<path d="M-0.243104 83.9976C-0.607655 84.1131 -0.943331 84.4849 -1.02274 84.8603C-1.17794 85.593 -0.459669 86.3113 0.273042 86.1561C0.861377 86.0333 1.27646 85.4234 1.15735 84.8603C1.0238 84.2286 0.34884 83.8135 -0.243104 83.9976Z" fill="black"/>
<path d="M9.19757 83.9976C8.83302 84.1131 8.49734 84.4849 8.41794 84.8603C8.26273 85.593 8.981 86.3113 9.71372 86.1561C10.1324 86.0694 10.5114 85.6905 10.598 85.2718C10.7641 84.4921 9.95916 83.7594 9.19757 83.9976Z" fill="black"/>
<path d="M18.6398 83.9976C18.2753 84.1131 17.9396 84.4849 17.8602 84.8603C17.705 85.593 18.4233 86.3113 19.156 86.1561C19.5747 86.0694 19.9537 85.6905 20.0403 85.2718C20.2063 84.4921 19.4014 83.7594 18.6398 83.9976Z" fill="black"/>
<path d="M28.082 83.9976C27.7175 84.1131 27.3818 84.4849 27.3024 84.8603C27.1472 85.593 27.8655 86.3113 28.5982 86.1561C29.0169 86.0694 29.3959 85.6905 29.4825 85.2718C29.6485 84.4921 28.8436 83.7594 28.082 83.9976Z" fill="black"/>
<path d="M37.5242 83.9976C37.1597 84.1131 36.824 84.4849 36.7446 84.8603C36.5894 85.593 37.3077 86.3113 38.0404 86.1561C38.4591 86.0694 38.8381 85.6905 38.9247 85.2718C39.0907 84.4921 38.2858 83.7594 37.5242 83.9976Z" fill="black"/>
<path d="M46.9665 83.9976C46.6019 84.1131 46.2663 84.4849 46.1869 84.8603C46.0317 85.593 46.7499 86.3113 47.4826 86.1561C47.9013 86.0694 48.2803 85.6905 48.3669 85.2718C48.533 84.4921 47.7281 83.7594 46.9665 83.9976Z" fill="black"/>
<path d="M56.4087 83.9976C56.0442 84.1131 55.7085 84.4849 55.6291 84.8603C55.4739 85.593 56.1922 86.3113 56.9249 86.1561C57.3436 86.0694 57.7226 85.6905 57.8092 85.2718C57.9752 84.4921 57.1703 83.7594 56.4087 83.9976Z" fill="black"/>
<path d="M65.8509 83.9976C65.4864 84.1131 65.1507 84.4849 65.0713 84.8603C64.9161 85.593 65.6344 86.3113 66.3671 86.1561C66.7858 86.0694 67.1648 85.6905 67.2514 85.2718C67.4174 84.4921 66.6125 83.7594 65.8509 83.9976Z" fill="black"/>
<path d="M75.2931 83.9976C74.9286 84.1131 74.5929 84.4849 74.5135 84.8603C74.3583 85.593 75.0766 86.3113 75.8093 86.1561C76.228 86.0694 76.607 85.6905 76.6936 85.2718C76.8596 84.4921 76.0547 83.7594 75.2931 83.9976Z" fill="black"/>
<path d="M84.7353 83.9976C84.3708 84.1131 84.0351 84.4849 83.9557 84.8603C83.8005 85.593 84.5188 86.3113 85.2515 86.1561C85.6702 86.0694 86.0492 85.6905 86.1358 85.2718C86.3018 84.4921 85.4969 83.7594 84.7353 83.9976Z" fill="black"/>
</g>
<defs>
<clipPath id="clip0">
<rect width="85" height="85" fill="white"/>
</clipPath>
</defs>
</svg>
